<?xml version="1.0" standalone="no"?>
<!DOCTYPE svg PUBLIC "-//W3C//DTD SVG 20010904//EN"
 "http://www.w3.org/TR/2001/REC-SVG-20010904/DTD/svg10.dtd">
<svg version="1.0" xmlns="http://www.w3.org/2000/svg"
 width="375.000000pt" height="400.000000pt" viewBox="0 0 375.000000 400.000000"
 preserveAspectRatio="xMidYMid meet">

<g transform="translate(0.000000,400.000000) scale(0.100000,-0.100000)"
fill="#000000" stroke="none">
<path d="M2090 2930 c8 -5 22 -10 31 -10 9 0 19 -6 22 -13 3 -9 46 -17 128
-26 68 -7 159 -18 202 -25 42 -7 74 -9 70 -5 -16 14 -170 57 -262 73 -107 18
-215 22 -191 6z"/>
<path d="M1110 2604 c0 -16 -2 -17 -10 -4 -8 12 -32 -7 -124 -101 -63 -64
-120 -127 -127 -140 -14 -28 -19 -31 87 56 33 28 90 74 126 103 42 35 64 60
63 72 -2 26 -15 38 -15 14z"/>
<path d="M2213 2196 c-175 -82 -171 -351 7 -441 94 -48 203 -26 271 54 105
122 62 319 -85 387 -66 31 -126 31 -193 0z"/>
<path d="M1442 1967 c-89 -33 -144 -117 -145 -220 -2 -229 257 -343 405 -179
109 121 57 333 -98 398 -40 17 -117 17 -162 1z"/>
<path d="M2819 1714 c-30 -31 -88 -83 -129 -117 -41 -34 -86 -73 -100 -87 -14
-15 -33 -31 -43 -36 -16 -9 -16 -13 -3 -45 8 -19 15 -28 16 -21 0 7 8 16 18
19 20 8 25 12 78 57 23 20 46 36 52 36 28 0 186 229 170 246 -2 2 -29 -22 -59
-52z"/>
<path d="M2503 1443 c-7 -3 -13 -9 -13 -14 0 -6 5 -7 11 -4 6 4 17 -1 24 -11
8 -11 14 -14 14 -9 0 18 -24 42 -36 38z"/>
<path d="M2444 1414 c-18 -14 -18 -15 4 -4 12 6 22 13 22 15 0 8 -5 6 -26 -11z"/>
<path d="M1204 1261 c11 -17 135 -77 197 -95 63 -18 229 -31 244 -19 6 4 16
19 22 33 10 22 12 22 12 5 1 -17 3 -17 11 -5 5 8 10 18 10 23 0 4 -44 7 -97 7
-89 0 -337 36 -387 56 -14 5 -17 4 -12 -5z"/>
<path d="M1728 1203 c6 -2 18 -2 25 0 6 3 1 5 -13 5 -14 0 -19 -2 -12 -5z"/>
</g>
</svg>
