<?xml version="1.0" standalone="no"?>
<!DOCTYPE svg PUBLIC "-//W3C//DTD SVG 20010904//EN"
 "http://www.w3.org/TR/2001/REC-SVG-20010904/DTD/svg10.dtd">
<svg version="1.0" xmlns="http://www.w3.org/2000/svg"
 width="97.000000pt" height="97.000000pt" viewBox="0 0 97.000000 97.000000"
 preserveAspectRatio="xMidYMid meet">

<g transform="translate(0.000000,97.000000) scale(0.100000,-0.100000)"
fill="#000000" stroke="none">
<path d="M0 485 l0 -485 485 0 485 0 0 485 0 485 -485 0 -485 0 0 -485z m547
219 c-3 -3 -12 -4 -19 -1 -8 3 -5 6 6 6 11 1 17 -2 13 -5z m87 -26 c32 -33 80
-106 108 -164 13 -27 13 -35 -1 -67 -9 -21 -21 -37 -27 -37 -6 0 -17 -6 -23
-14 -14 -17 -54 -29 -44 -13 4 6 0 8 -10 4 -10 -3 -17 -2 -17 3 0 5 8 11 18
14 16 6 46 55 38 63 -2 2 -11 -3 -19 -12 -9 -8 -18 -15 -21 -15 -3 0 -17 -11
-31 -25 -38 -34 -125 -57 -202 -53 -39 2 -62 -1 -60 -7 2 -5 8 -10 13 -11 5 0
22 -4 37 -9 26 -7 27 -9 13 -23 -19 -19 -56 -23 -75 -8 -11 8 -13 8 -8 -1 5
-8 0 -9 -23 0 -40 15 -55 60 -55 167 0 102 7 129 40 153 33 24 32 14 -2 -17
-39 -36 -23 -41 23 -8 63 45 185 98 170 73 -5 -8 0 -8 19 -1 15 6 47 10 73 10
l47 1 -30 14 c-27 12 -28 13 -7 14 13 1 37 -13 56 -31z"/>
<path d="M524 535 c-14 -22 -15 -30 -4 -50 15 -28 40 -36 67 -21 38 21 12 96
-34 96 -7 0 -20 -11 -29 -25z"/>
<path d="M367 492 c-22 -24 -21 -45 2 -66 24 -22 59 -17 78 10 12 18 11 24 -8
47 -24 31 -49 34 -72 9z"/>
</g>
</svg>
